<?xml version="1.0" encoding="UTF-8"?>
<svg version="1.1" xmlns="http://www.w3.org/2000/svg" width="463" height="165">
<path d="M0 0 C11.95766496 11.53313248 19.5021348 26.83873411 19.95712566 43.55117416 C19.99949988 47.33700731 19.97202278 51.1205049 19.93359375 54.90625 C19.92798496 56.54819345 19.92372095 58.19014198 19.92073059 59.83209229 C19.9093826 64.11302021 19.88000448 68.39363329 19.84661865 72.67443848 C19.81569864 77.05895735 19.80217882 81.44352807 19.78710938 85.828125 C19.75512302 94.4011847 19.7040515 102.97399047 19.640625 111.546875 C10.38173598 111.6401998 1.12301275 111.71095297 -8.13624668 111.75412369 C-12.4372748 111.77485987 -16.73797747 111.80291643 -21.03881836 111.84863281 C-25.20155398 111.89259635 -29.36397971 111.91611664 -33.52692986 111.92638397 C-35.10271002 111.93368597 -36.67847626 111.94794025 -38.25412178 111.96979523 C-57.64775953 112.22771066 -74.75899838 107.63978609 -89.15234375 93.78125 C-89.88066406 93.04390625 -90.60898438 92.3065625 -91.359375 91.546875 C-91.99488281 90.93328125 -92.63039063 90.3196875 -93.28515625 89.6875 C-105.19808455 77.32552562 -108.86208778 61.20197098 -108.70678711 44.59716797 C-108.53233531 37.82751709 -108.06225415 31.82629121 -105.359375 25.546875 C-105.10655762 24.94713867 -104.85374023 24.34740234 -104.59326172 23.72949219 C-96.42471138 4.76662094 -83.56910473 -6.74948017 -64.359375 -14.453125 C-61.64531898 -15.37942398 -59.20716691 -15.93102982 -56.359375 -16.453125 C-55.39064453 -16.63488281 -55.39064453 -16.63488281 -54.40234375 -16.8203125 C-34.20163895 -19.89351805 -15.27910638 -13.00906772 0 0 Z M-71.359375 15.546875 C-79.42392089 24.5791664 -85.27701573 37.02226169 -84.63671875 49.3671875 C-83.34062472 59.55339128 -80.63970446 67.35743072 -74.359375 75.546875 C-73.85792969 76.20429687 -73.35648438 76.86171875 -72.83984375 77.5390625 C-67.48908046 83.63486878 -57.4873164 89.29642248 -49.359375 90.546875 C-34.10795441 91.37127611 -22.42711317 89.57625069 -10.140625 79.77734375 C-7.46441688 77.39730637 -7.46441688 77.39730637 -5.359375 74.546875 C-5.81085349 70.89822304 -6.9350202 68.10714168 -8.6796875 64.89453125 C-9.13214844 64.03537109 -9.58460937 63.17621094 -10.05078125 62.29101562 C-11.00663166 60.50302842 -11.97019328 58.71914231 -12.94140625 56.93945312 C-16.32059462 50.47639228 -16.32059462 50.47639228 -16.484375 46.55078125 C-14.41460457 41.02420673 -11.56999286 35.90333124 -8.77734375 30.71484375 C-8.32746094 29.85246094 -7.87757812 28.99007812 -7.4140625 28.1015625 C-6.78733643 26.93343018 -6.78733643 26.93343018 -6.14794922 25.74169922 C-5.21927757 23.15694438 -5.36516946 22.07422587 -6.359375 19.546875 C-11.38368874 12.23672484 -20.62513203 6.38948107 -29.359375 4.546875 C-45.34959194 2.40885723 -58.8721469 4.64665248 -71.359375 15.546875 Z " fill="#42A555" transform="translate(111.359375,20.453125)"/>
<path d="M0 0 C3.47251443 2.26916785 6.73201891 4.69655263 9.97265625 7.2890625 C9.97265625 4.3190625 9.97265625 1.3490625 9.97265625 -1.7109375 C13.93265625 -1.7109375 17.89265625 -1.7109375 21.97265625 -1.7109375 C21.97265625 21.7190625 21.97265625 45.1490625 21.97265625 69.2890625 C18.01265625 69.2890625 14.05265625 69.2890625 9.97265625 69.2890625 C9.97265625 65.9890625 9.97265625 62.6890625 9.97265625 59.2890625 C9.12703125 59.91554687 8.28140625 60.54203125 7.41015625 61.1875 C-0.98275052 67.28546164 -8.09633678 71.78546078 -19.02734375 70.2890625 C-25.89761499 68.65368505 -32.52419625 66.87501875 -38.02734375 62.2890625 C-38.59839844 61.81984375 -39.16945312 61.350625 -39.7578125 60.8671875 C-46.16486455 55.12952895 -50.60159704 46.53791118 -51.30078125 37.91796875 C-51.69588072 26.79461079 -49.97723528 17.87808504 -42.83984375 8.9140625 C-32.30940474 -2.12220546 -14.05813689 -7.53017737 0 0 Z M-34.62109375 19.15234375 C-38.5401508 25.10713322 -40.1131357 31.18315739 -39.02734375 38.2890625 C-36.44236519 46.80837356 -31.58337817 51.6897372 -24.02734375 56.2890625 C-17.72853235 58.3886663 -9.70488718 58.49966359 -3.58984375 55.7265625 C0.45031006 53.31440316 3.26929015 50.09567146 5.97265625 46.2890625 C6.59140625 45.4228125 7.21015625 44.5565625 7.84765625 43.6640625 C10.25342463 36.44675736 10.09411797 28.82212397 6.97265625 21.8515625 C3.61345025 15.99912146 -0.94051053 12.73396316 -6.96484375 9.9140625 C-17.91227795 7.67989225 -27.55742577 10.13950323 -34.62109375 19.15234375 Z " fill="#42A655" transform="translate(260.02734375,46.7109375)"/>
<path d="M0 0 C17.49 0 34.98 0 53 0 C53 4.29 53 8.58 53 13 C39.8 13 26.6 13 13 13 C13 22.9 13 32.8 13 43 C21.91 43 30.82 43 40 43 C40 46.63 40 50.26 40 54 C31.09 54 22.18 54 13 54 C13 64.23 13 74.46 13 85 C26.2 85 39.4 85 53 85 C53 88.96 53 92.92 53 97 C35.51 97 18.02 97 0 97 C0 64.99 0 32.98 0 0 Z " fill="#42A655" transform="translate(338,19)"/>
<path d="M0 0 C3.96 0 7.92 0 12 0 C12 9.57 12 19.14 12 29 C14.64 27.35 17.28 25.7 20 24 C27.294356 21.568548 34.39387932 22.28467125 41.3125 25.5 C48.71693558 29.62865125 53.70593148 34.78867524 56.4921875 42.84765625 C58.04259411 49.41899505 58.13423297 55.80775393 58.09765625 62.52734375 C58.0962413 63.51626114 58.09482635 64.50517853 58.09336853 65.52406311 C58.08780088 68.66190704 58.0752544 71.79967787 58.0625 74.9375 C58.05748082 77.07356667 58.05291864 79.20963447 58.04882812 81.34570312 C58.03784205 86.56382996 58.02059984 91.78190262 58 97 C53.71 97 49.42 97 45 97 C44.98541748 95.54706543 44.97083496 94.09413086 44.95581055 92.59716797 C44.89774882 87.19604129 44.82051561 81.79532805 44.73754883 76.39453125 C44.70433667 74.05898763 44.67629324 71.72336447 44.65356445 69.38769531 C44.61995099 66.02634855 44.56762997 62.66572831 44.51171875 59.3046875 C44.50532883 58.26384003 44.4989389 57.22299255 44.49235535 56.15060425 C44.35708499 49.44957707 43.66676436 44.74295763 38.8125 39.75 C34.5170997 37.07730648 30.72957733 35.56901411 25.625 36.375 C20.67189742 37.80879285 17.71470168 39.43930117 15 44 C13.42085862 47.44801931 12.74107448 50.18879553 12.68115234 53.97387695 C12.66128265 54.93449539 12.64141296 55.89511383 12.62094116 56.88484192 C12.60361435 58.42104439 12.60361435 58.42104439 12.5859375 59.98828125 C12.56657135 61.04661667 12.5472052 62.10495209 12.5272522 63.19535828 C12.46758752 66.56765748 12.42112307 69.93999106 12.375 73.3125 C12.33680819 75.60222823 12.29775576 77.89194228 12.2578125 80.18164062 C12.16189656 85.78764491 12.07781672 91.39371645 12 97 C8.04 97 4.08 97 0 97 C0 64.99 0 32.98 0 0 Z " fill="#42A655" transform="translate(141,19)"/>
<path d="M0 0 C19.47 0 38.94 0 59 0 C59 12 59 12 56.91015625 15.41015625 C55.50056641 16.72306641 55.50056641 16.72306641 54.0625 18.0625 C53.04158641 19.05975928 52.02339886 20.05981611 51.0078125 21.0625 C50.49766602 21.55105469 49.98751953 22.03960937 49.46191406 22.54296875 C47.2636178 24.73392268 45.36377052 27.13222322 43.4375 29.5625 C40.40642433 33.32838189 37.27418423 36.94329756 34 40.5 C28.31712759 46.68012374 22.66412295 53.00381557 18 60 C31.53 60 45.06 60 59 60 C59 63.96 59 67.92 59 72 C39.53 72 20.06 72 0 72 C0 58.65048548 0 58.65048548 3.65600586 54.67993164 C4.18202393 54.1668042 4.70804199 53.65367676 5.25 53.125 C6.36146306 51.93953851 7.47211796 50.75331887 8.58203125 49.56640625 C9.15260254 48.97617676 9.72317383 48.38594727 10.31103516 47.77783203 C12.97397042 44.97478279 15.44640913 42.01772788 17.9375 39.0625 C21.11382178 35.34052002 24.31110405 31.63824742 27.5390625 27.9609375 C28.12695557 27.28925537 28.71484863 26.61757324 29.32055664 25.92553711 C30.45186917 24.63439795 31.5863009 23.34598281 32.72436523 22.06079102 C33.23942627 21.47225342 33.7544873 20.88371582 34.28515625 20.27734375 C34.73769775 19.76421631 35.19023926 19.25108887 35.65649414 18.72241211 C37.29732597 16.61881979 38.62740191 14.28766349 40 12 C26.8 12 13.6 12 0 12 C0 8.04 0 4.08 0 0 Z " fill="#42A655" transform="translate(401,44)"/>
<path d="M0 0 C3.96 0 7.92 0 12 0 C12 7.92 12 15.84 12 24 C15.63 24 19.26 24 23 24 C23 28.29 23 32.58 23 37 C19.37 37 15.74 37 12 37 C12 56.8 12 76.6 12 97 C8.04 97 4.08 97 0 97 C0 77.2 0 57.4 0 37 C-3.63 37 -7.26 37 -11 37 C-11 32.71 -11 28.42 -11 24 C-7.37 24 -3.74 24 0 24 C0 16.08 0 8.16 0 0 Z " fill="#43A756" transform="translate(304,19)"/>
<path d="M0 0 C1.32 0 2.64 0 4 0 C4 0.66 4 1.32 4 2 C4.66 2 5.32 2 6 2 C6 2.99 6 3.98 6 5 C6.66 5 7.32 5 8 5 C8 5.66 8 6.32 8 7 C9.32 7 10.64 7 12 7 C12 4.69 12 2.38 12 0 C12.99 0 13.98 0 15 0 C15 4.95 15 9.9 15 15 C11 14 11 14 9 13 C9 12.34 9 11.68 9 11 C8.34 11 7.68 11 7 11 C5.375 9.5 5.375 9.5 4 8 C4 10.31 4 12.62 4 15 C2.68 15 1.36 15 0 15 C0 10.05 0 5.1 0 0 Z " fill="#FFFFFF" transform="translate(256,147)"/>
<path d="M0 0 C1.32 0 2.64 0 4 0 C4 0.66 4 1.32 4 2 C4.66 2 5.32 2 6 2 C6 2.99 6 3.98 6 5 C6.99 5 7.98 5 9 5 C9 4.01 9 3.02 9 2 C9.99 2 10.98 2 12 2 C12 1.34 12 0.68 12 0 C12.99 0 13.98 0 15 0 C15 4.95 15 9.9 15 15 C14.01 15 13.02 15 12 15 C11.67 13.02 11.34 11.04 11 9 C10.34 9 9.68 9 9 9 C8.34 9.66 7.68 10.32 7 11 C6.01 10.01 5.02 9.02 4 8 C4 10.31 4 12.62 4 15 C2.68 15 1.36 15 0 15 C0 10.05 0 5.1 0 0 Z " fill="#FFFFFF" transform="translate(82,147)"/>
<path d="M0 0 C4.29 0 8.58 0 13 0 C13 0.66 13 1.32 13 2 C13.99 2 14.98 2 16 2 C16 3.98 16 5.96 16 8 C14.35 8 12.7 8 11 8 C11 9.32 11 10.64 11 12 C11.66 12 12.32 12 13 12 C13 12.66 13 13.32 13 14 C13.99 14.33 14.98 14.66 16 15 C14.02 15 12.04 15 10 15 C10 14.34 10 13.68 10 13 C9.01 13 8.02 13 7 13 C7 12.34 7 11.68 7 11 C6.01 11 5.02 11 4 11 C4 12.32 4 13.64 4 15 C2.68 15 1.36 15 0 15 C0 10.05 0 5.1 0 0 Z M4 1 C4 3.64 4 6.28 4 9 C5.98 9 7.96 9 10 9 C10 8.34 10 7.68 10 7 C10.66 7 11.32 7 12 7 C12.042721 5.33388095 12.04063832 3.66617115 12 2 C10.81575674 0.58422523 10.81575674 0.58422523 7.4375 0.9375 C5.7359375 0.9684375 5.7359375 0.9684375 4 1 Z " fill="#FFFFFF" transform="translate(299,147)"/>
<path d="M0 0 C2.31 0 4.62 0 7 0 C7 0.66 7 1.32 7 2 C7.66 2 8.32 2 9 2 C9 2.99 9 3.98 9 5 C9.66 5 10.32 5 11 5 C11 8.3 11 11.6 11 15 C9.68 15 8.36 15 7 15 C7 13.68 7 12.36 7 11 C4.69 11 2.38 11 0 11 C0 12.32 0 13.64 0 15 C-1.32 15 -2.64 15 -4 15 C-4 11.7 -4 8.4 -4 5 C-3.34 5 -2.68 5 -2 5 C-2 4.01 -2 3.02 -2 2 C-1.34 2 -0.68 2 0 2 C0 1.34 0 0.68 0 0 Z M2 1 C2 1.99 2 2.98 2 4 C1.34 4 0.68 4 0 4 C0 5.65 0 7.3 0 9 C2.31 9 4.62 9 7 9 C7 7.35 7 5.7 7 4 C6.34 4 5.68 4 5 4 C4.67 3.01 4.34 2.02 4 1 C3.34 1 2.68 1 2 1 Z " fill="#FFFFFF" transform="translate(108,147)"/>
<path d="M0 0 C3.63 0 7.26 0 11 0 C11 0.66 11 1.32 11 2 C11.99 2 12.98 2 14 2 C14 2.99 14 3.98 14 5 C14.66 5 15.32 5 16 5 C16 6.98 16 8.96 16 11 C15.34 11 14.68 11 14 11 C14 11.66 14 12.32 14 13 C13.01 13 12.02 13 11 13 C11 13.66 11 14.32 11 15 C7.37 15 3.74 15 0 15 C0 10.05 0 5.1 0 0 Z M5 1 C3.68737429 2.08552366 3.68737429 2.08552366 3.90234375 4.72265625 C3.91394531 5.82480469 3.92554688 6.92695313 3.9375 8.0625 C3.94652344 9.16722656 3.95554688 10.27195313 3.96484375 11.41015625 C3.97644531 12.26480469 3.98804688 13.11945313 4 14 C5.98 14 7.96 14 10 14 C10 13.34 10 12.68 10 12 C10.66 12 11.32 12 12 12 C12 9.36 12 6.72 12 4 C11.34 4 10.68 4 10 4 C9.67 3.01 9.34 2.02 9 1 C7.68 1 6.36 1 5 1 Z " fill="#FFFFFF" transform="translate(125,147)"/>
<path d="M0 0 C4.29 0 8.58 0 13 0 C13 0.66 13 1.32 13 2 C13.66 2 14.32 2 15 2 C15 3.32 15 4.64 15 6 C14.34 6 13.68 6 13 6 C13 6.99 13 7.98 13 9 C13.66 9 14.32 9 15 9 C15 10.32 15 11.64 15 13 C14.34 13 13.68 13 13 13 C13 13.66 13 14.32 13 15 C8.71 15 4.42 15 0 15 C0 10.05 0 5.1 0 0 Z M3 2 C2.95936168 3.66617115 2.957279 5.33388095 3 7 C5.64 7 8.28 7 11 7 C11 5.02 11 3.04 11 1 C6.67679914 0.49633499 6.67679914 0.49633499 3 2 Z M3 9 C2.95936168 10.66617115 2.957279 12.33388095 3 14 C5.64 14 8.28 14 11 14 C11 12.02 11 10.04 11 8 C6.67679914 7.49633499 6.67679914 7.49633499 3 9 Z " fill="#FFFFFF" transform="translate(191,147)"/>
<path d="M0 0 C3.3 0 6.6 0 10 0 C10 0.66 10 1.32 10 2 C10.99 2 11.98 2 13 2 C13 2.99 13 3.98 13 5 C13.66 5 14.32 5 15 5 C15 6.98 15 8.96 15 11 C14.34 11 13.68 11 13 11 C13 11.66 13 12.32 13 13 C12.01 13 11.02 13 10 13 C10 13.66 10 14.32 10 15 C6.7 15 3.4 15 0 15 C0 10.05 0 5.1 0 0 Z M4 1 C2.68737429 2.08552366 2.68737429 2.08552366 2.90234375 4.72265625 C2.91394531 5.82480469 2.92554688 6.92695313 2.9375 8.0625 C2.94652344 9.16722656 2.95554687 10.27195313 2.96484375 11.41015625 C2.97644531 12.26480469 2.98804688 13.11945313 3 14 C4.98 14 6.96 14 9 14 C9 13.34 9 12.68 9 12 C9.66 12 10.32 12 11 12 C11 9.36 11 6.72 11 4 C10.34 4 9.68 4 9 4 C8.67 3.01 8.34 2.02 8 1 C6.68 1 5.36 1 4 1 Z " fill="#FFFFFF" transform="translate(365,147)"/>
<path d="M0 0 C5.28 0 10.56 0 16 0 C16 0.33 16 0.66 16 1 C12.04 1 8.08 1 4 1 C4 2.98 4 4.96 4 7 C6.97 7 9.94 7 13 7 C13 7.33 13 7.66 13 8 C10.03 8 7.06 8 4 8 C4 9.98 4 11.96 4 14 C7.96 14 11.92 14 16 14 C16 14.33 16 14.66 16 15 C10.72 15 5.44 15 0 15 C0 10.05 0 5.1 0 0 Z " fill="#FFFFFF" transform="translate(147,147)"/>
<path d="M0 0 C4.95 0 9.9 0 15 0 C15 0.33 15 0.66 15 1 C11.37 1 7.74 1 4 1 C4 2.98 4 4.96 4 7 C6.97 7 9.94 7 13 7 C13 7.33 13 7.66 13 8 C10.03 8 7.06 8 4 8 C4 9.98 4 11.96 4 14 C7.63 14 11.26 14 15 14 C15 14.33 15 14.66 15 15 C10.05 15 5.1 15 0 15 C0 10.05 0 5.1 0 0 Z " fill="#FFFFFF" transform="translate(343,147)"/>
<path d="M0 0 C1.32 0 2.64 0 4 0 C4 2.31 4 4.62 4 7 C5.65 7 7.3 7 9 7 C9 4.69 9 2.38 9 0 C10.32 0 11.64 0 13 0 C13 1.98 13 3.96 13 6 C12.34 6 11.68 6 11 6 C11 6.66 11 7.32 11 8 C10.01 8 9.02 8 8 8 C8 10.31 8 12.62 8 15 C6.68 15 5.36 15 4 15 C4 12.69 4 10.38 4 8 C3.34 8 2.68 8 2 8 C2 7.34 2 6.68 2 6 C1.34 6 0.68 6 0 6 C0 4.02 0 2.04 0 0 Z " fill="#FFFFFF" transform="translate(215,147)"/>
<path d="M0 0 C4.95 0 9.9 0 15 0 C15 0.33 15 0.66 15 1 C11.37 1.33 7.74 1.66 4 2 C3.67 3.65 3.34 5.3 3 7 C6.3 7 9.6 7 13 7 C13 7.33 13 7.66 13 8 C8.545 8.495 8.545 8.495 4 9 C3.67 10.65 3.34 12.3 3 14 C6.96 14 10.92 14 15 14 C15 14.33 15 14.66 15 15 C10.05 15 5.1 15 0 15 C0 10.05 0 5.1 0 0 Z " fill="#FFFFFF" transform="translate(278,147)"/>
<path d="M0 0 C4.95 0 9.9 0 15 0 C15 0.33 15 0.66 15 1 C11.37 1 7.74 1 4 1 C4 2.98 4 4.96 4 7 C6.97 7 9.94 7 13 7 C13 7.33 13 7.66 13 8 C10.03 8 7.06 8 4 8 C4 10.31 4 12.62 4 15 C2.68 15 1.36 15 0 15 C0 10.05 0 5.1 0 0 Z " fill="#FFFFFF" transform="translate(321,147)"/>
</svg>
