<?xml version="1.0" encoding="UTF-8"?>
<svg version="1.1" xmlns="http://www.w3.org/2000/svg" width="1605" height="65">
<path d="M0 0 C529.65 0 1059.3 0 1605 0 C1605 21.45 1605 42.9 1605 65 C1075.35 65 545.7 65 0 65 C0 43.55 0 22.1 0 0 Z " fill="#33383B" transform="translate(0,0)"/>
<path d="M0 0 C246.84 0 493.68 0 748 0 C748 0.99 748 1.98 748 3 C501.16 3 254.32 3 0 3 C0 2.01 0 1.02 0 0 Z " fill="#AAA6B0" transform="translate(857,30)"/>
<path d="M0 0 C242.22 0 484.44 0 734 0 C734 0.99 734 1.98 734 3 C491.78 3 249.56 3 0 3 C0 2.01 0 1.02 0 0 Z " fill="#AAA6B0" transform="translate(2,30)"/>
<path d="M0 0 C4.5400194 3.27303724 7.65762561 7.37405487 8.6875 12.9375 C9.25611324 18.85326468 8.94574674 23.80329302 5.6875 28.9375 C0.10616121 33.86955553 -6.00436061 34.78581762 -13.28125 34.48828125 C-19.27538135 33.3991414 -21.88733039 29.96032138 -25.25 25.1875 C-26.96430451 19.94374502 -27.52649692 14.8550893 -25.36328125 9.65625 C-19.55646917 -0.16220828 -10.91628882 -3.50145113 0 0 Z " fill="#F5F5F5" transform="translate(797.3125,18.0625)"/>
<path d="M0 0 C2.93423195 1.79646854 4.47205355 2.9441071 6 6 C6.12207871 7.78859511 6.17548448 9.58228381 6.1875 11.375 C6.20167969 12.33148438 6.21585938 13.28796875 6.23046875 14.2734375 C5.99298481 17.08299322 5.53606041 18.65685701 4 21 C0.07557926 23.61628049 -3.38699055 24.59027672 -8.03515625 24.4296875 C-11.6186316 23.6460249 -13.47052561 21.59116889 -16 19 C-17.59984287 15.80031426 -17.3629489 12.48042073 -17 9 C-13.77138724 0.44417617 -8.65309416 -1.30216466 0 0 Z " fill="#363B3E" transform="translate(794,23)"/>
<path d="M0 0 C2.3125 0.8125 2.3125 0.8125 4.3125 2.8125 C3.9375 4.9375 3.9375 4.9375 3.3125 6.8125 C0.64583333 6.8125 -2.02083333 6.8125 -4.6875 6.8125 C-6.20856634 9.85463267 -6.06179338 13.09297572 -6.25 16.4375 C-6.29318359 17.14390625 -6.33636719 17.8503125 -6.38085938 18.578125 C-6.48694751 20.32268537 -6.58772889 22.06756697 -6.6875 23.8125 C-10.4375 24.9375 -10.4375 24.9375 -12.6875 23.8125 C-12.6875 17.5425 -12.6875 11.2725 -12.6875 4.8125 C-13.6775 4.8125 -14.6675 4.8125 -15.6875 4.8125 C-15.3575 3.4925 -15.0275 2.1725 -14.6875 0.8125 C-12.3125 0.6875 -12.3125 0.6875 -9.6875 0.8125 C-9.0275 1.4725 -8.3675 2.1325 -7.6875 2.8125 C-6.6046875 2.0390625 -6.6046875 2.0390625 -5.5 1.25 C-2.6875 -0.1875 -2.6875 -0.1875 0 0 Z " fill="#F0F1F1" transform="translate(826.6875,28.1875)"/>
</svg>
